# xmcd
# 
# Track frame offsets:
#     150
#     21460
#     29488
#     52533
#     82220
#     95891
#     109100
#     123171
#     147275
#     159092
#     181765
#     202250
#     209396
#     236021
#     266145
# 
# Disc length: 3785
# 
# Revision: 0
# Processed by: cddbd v1.5.2PL0 Copyright (c) Steve Scherf et al.
# Submitted via: fre:ac v1.0.27
# 
DISCID=d50ec70f
DTITLE=Various Artist - HORROR GRAFFITI
DYEAR=2004
DGENRE=Soundtrack
TTITLE0=Mike Oldfield - Tubular Bells - Part 1 (Original Edit) - (The Exorcist)
TTITLE1=Christopher Young - Main Theme (Hellraiser)
TTITLE2=Howard Shore - Main Title (The Silence of the Lambs)
TTITLE3=Bernard Herrmann - Suite from Psycho (Psycho)
TTITLE4=Danny Elfman - Main Titles (Red Dragon)
TTITLE5=Wendy Carlos and Rachel Elkind - Main Theme (The Shining)
TTITLE6=Wojciech Kilar - Vampire Hunters (Bram Stoker's Dracula)
TTITLE7=James Newton Howard - Malcolm Is Dead (The Sixth Sense)
TTITLE8=Keith Emerson - Mater Tenebrarum (Inferno)
TTITLE9=Christopher Young - Main Title (Urban Legend)
TTITLE10=Humphrey Searle - The History of Hill House (The Haunting)
TTITLE11=Bernard Herrmann - Main Titles (Sisters)
TTITLE12=Goblin - Suspiria (Suspiria)
TTITLE13=Pino Donaggio - The Museum (Dressed To Kill)
TTITLE14=Les Baxter - Main Title - End Title Montage (The Pit and the Pendulum)
EXTD=The best of horror movie soundtracks
EXTT0=
EXTT1=
EXTT2=
EXTT3=
EXTT4=
EXTT5=
EXTT6=
EXTT7=
EXTT8=
EXTT9=
EXTT10=
EXTT11=
EXTT12=
EXTT13=
EXTT14=
PLAYORDER=
